Coordinates
version=1
nRows=11
nColumns=33
inDegrees=yes

Units are S.I. units (second, meters, Newtons, ...)
Angles are in degrees.

endheader
time	ground_thorax_rot_x	ground_thorax_rot_y	ground_thorax_rot_z	ground_thorax_tx	ground_thorax_ty	ground_thorax_tz	clav_prot_r	clav_elev_r	scapula_abduction_r	scapula_elevation_r	scapula_upward_rot_r	scapula_winging_r	shoulder_elv_r	plane_of_elev_r	axial_rot_r	elbow_flexion_r	pro_sup_r	wrist_flex_r	wrist_dev_r	clav_prot_l	clav_elev_l	scapula_abduction_l	scapula_elevation_l	scapula_upward_rot_l	scapula_winging_l	shoulder_elv_l	plane_of_elev_l	axial_rot_l	elbow_flexion_l	pro_sup_l	wrist_flex_l	wrist_dev_l	
5.1200	-11.484671	-41.171260	71.921706	-5.972972	804.880658	-40.674699	23.905483	-45.000000	44.064905	-45.000000	-26.340201	2398.868173	-1542.154192	142.097207	-180.000000	3589.047784	422.952398	24.123561	17.126634	-3.685187	32.839313	-27.192953	-45.000000	-45.000000	2969.519161	-6043.089334	25.961423	42.841693	1788.711322	-315.505756	13.186479	-15.677390	
5.1300	-11.325426	-41.165453	72.154371	-5.196786	804.047609	-40.565710	23.955121	-45.000000	43.976816	-45.000000	-26.629726	2398.830832	-1542.300059	142.073119	-180.000000	3589.074437	422.964035	24.041732	17.093651	-3.730320	32.823419	-27.106308	-45.000000	-45.000000	2969.488887	-6043.138172	25.945509	42.774521	1788.707201	-315.440854	13.161584	-15.632036	
5.1400	-11.160760	-41.156642	72.393812	-4.435262	803.224908	-40.465247	24.000454	-45.000000	43.888269	-45.000000	-26.922182	2398.800578	-1542.440773	142.055138	-180.000000	3589.108526	422.992057	23.955690	17.075649	-3.760538	32.802242	-27.014711	-45.000000	-45.000000	2969.447027	-6043.180184	25.919144	42.694193	1788.704540	-315.384030	13.127955	-15.574307	
5.1500	-10.999540	-41.144141	72.623112	-3.687372	802.413803	-40.373400	24.051468	-45.000000	43.791612	-45.000000	-27.223412	2398.775681	-1542.586993	142.028631	-180.000000	3589.134049	423.026160	23.877621	17.030458	-3.809690	32.789117	-26.915615	-45.000000	-45.000000	2969.419422	-6043.225922	25.911815	42.610182	1788.702617	-315.336580	13.111423	-15.533576	
5.1600	-10.829319	-41.128939	72.862885	-2.951980	801.614960	-40.289760	24.099399	-45.000000	43.696858	-45.000000	-27.523183	2398.756885	-1542.726363	142.009290	-180.000000	3589.165855	423.074793	23.798872	17.001626	-3.842544	32.769359	-26.818119	-45.000000	-45.000000	2969.386191	-6043.267848	25.894651	42.517493	1788.702170	-315.294764	13.089629	-15.487172	
5.1700	-10.661480	-41.110272	73.095074	-2.228376	800.828864	-40.213710	24.151390	-45.000000	43.596617	-45.000000	-27.827133	2398.741689	-1542.869753	141.986349	-180.000000	3589.192740	423.129090	23.719964	16.952776	-3.892546	32.757099	-26.717425	-45.000000	-45.000000	2969.357475	-6043.312362	25.887066	42.418050	1788.703872	-315.258024	13.073543	-15.449376	
5.1800	-10.481155	-41.090295	73.343097	-1.516021	800.055478	-40.144642	24.198215	-45.000000	43.504131	-45.000000	-28.122569	2398.727090	-1542.998402	141.977446	-180.000000	3589.231815	423.195526	23.639952	16.935006	-3.916992	32.732852	-26.627030	-45.000000	-45.000000	2969.321979	-6043.355518	25.859004	42.313649	1788.705948	-315.222715	13.047728	-15.402849	
5.1900	-10.304455	-41.068350	73.581278	-0.814741	799.294434	-40.082210	24.249999	-45.000000	43.408929	-45.000000	-28.417060	2398.712363	-1543.128891	141.967885	-180.000000	3589.268604	423.261804	23.558189	16.898351	-3.961504	32.717217	-26.542688	-45.000000	-45.000000	2969.292042	-6043.403594	25.832479	42.205176	1788.705924	-315.188045	13.025453	-15.362475	
5.2000	-10.116873	-41.046632	73.827917	-0.124672	798.545074	-40.026434	24.297244	-45.000000	43.321615	-45.000000	-28.700948	2398.699369	-1543.247421	141.970328	-180.000000	3589.315120	423.332076	23.470244	16.879793	-3.985022	32.691543	-26.466347	-45.000000	-45.000000	2969.260883	-6043.450173	25.793450	42.095262	1788.699369	-315.151589	13.002131	-15.319164	
5.2100	-9.934334	-41.021576	74.061084	0.554100	797.806201	-39.977723	24.346651	-45.000000	43.226725	-45.000000	-28.988055	2398.690502	-1543.370003	141.968014	-180.000000	3589.357090	423.398398	23.364175	16.837615	-4.030162	32.675729	-26.380822	-45.000000	-45.000000	2969.221546	-6043.495761	25.759678	41.977145	1788.697928	-315.114590	12.973875	-15.274884	
5.2200	-9.740196	-40.993221	74.303081	1.221107	797.076776	-39.936878	24.391776	-45.000000	43.138663	-45.000000	-29.267820	2398.682553	-1543.477798	141.972743	-180.000000	3589.406163	423.461388	23.261346	16.815604	-4.052792	32.651198	-26.294736	-45.000000	-45.000000	2969.182725	-6043.540310	25.723640	41.860494	1788.697609	-315.077527	12.948284	-15.234516	
